<?xml version="1.0" encoding="iso-8859-1"?>
<!-- Generator: Adobe Illustrator 19.0.0, SVG Export Plug-In . SVG Version: 6.00 Build 0)  -->
<svg version="1.1" id="Layer_1" xmlns="http://www.w3.org/2000/svg" xmlns:xlink="http://www.w3.org/1999/xlink" x="0px" y="0px"
	 viewBox="0 0 512 512" style="enable-background:new 0 0 512 512;" xml:space="preserve">
<path style="fill:#0071CE;" d="M437.486,167.891v-63.909c0-5.822-4.763-10.585-10.585-10.585H85.098
	c-5.822,0-10.585,4.763-10.585,10.585v63.909H437.486z"/>
<rect x="99.391" y="103.677" style="opacity:0.1;enable-background:new    ;" width="45.864" height="22.071"/>
<rect x="218.628" y="107.699" style="opacity:0.1;enable-background:new    ;" width="45.864" height="22.071"/>
<rect x="360.464" y="103.677" style="opacity:0.1;enable-background:new    ;" width="45.864" height="22.071"/>
<rect x="74.517" y="141.38" style="opacity:0.1;enable-background:new    ;" width="362.972" height="26.504"/>
<rect x="42.466" y="188.704" style="fill:#0071CE;" width="427.063" height="287.715"/>
<rect x="166.159" y="327.269" style="fill:#FFFFFF;" width="179.676" height="149.15"/>
<path style="fill:#00B3E3;" d="M42.464,250.28v-73.515c0-12.314,10.076-22.39,22.39-22.39h382.283
	c12.315,0,22.391,10.077,22.391,22.39v73.515L42.464,250.28L42.464,250.28z"/>
<rect x="57.211" y="324.708" style="opacity:0.1;enable-background:new    ;" width="45.864" height="22.071"/>
<rect x="105.107" y="401.976" style="opacity:0.1;enable-background:new    ;" width="45.864" height="22.071"/>
<rect x="89.759" y="270.588" style="opacity:0.1;enable-background:new    ;" width="45.864" height="22.071"/>
<rect x="57.211" y="182.978" style="opacity:0.1;enable-background:new    ;" width="45.864" height="22.071"/>
<rect x="402.273" y="205.047" style="opacity:0.1;enable-background:new    ;" width="45.864" height="22.07"/>
<rect x="377.346" y="285.915" style="opacity:0.1;enable-background:new    ;" width="45.864" height="22.071"/>
<rect x="225.307" y="278.452" style="opacity:0.1;enable-background:new    ;" width="45.864" height="22.07"/>
<rect x="400.273" y="384.85" style="opacity:0.1;enable-background:new    ;" width="45.864" height="22.071"/>
<path style="fill:#333E48;" d="M504.061,484.076c0,2.351-1.922,4.275-4.275,4.275H12.214c-2.352,0-4.275-1.924-4.275-4.275v-15.302
	c0-2.353,1.923-4.277,4.275-4.277h487.573c2.353,0,4.275,1.924,4.275,4.277V484.076z"/>
<rect x="153.479" y="464.5" style="fill:#A4A9AD;" width="205.037" height="23.855"/>
<rect x="247.535" y="327.269" style="fill:#D1D3D3;" width="16.936" height="137.221"/>
<g>
	<path style="fill:#00AD68;" d="M488.297,464.496V415.79c0-8.168-6.257-14.851-13.905-14.851H403.13
		c-7.649,0-13.906,6.683-13.906,14.851v48.707H488.297z"/>
	<path style="fill:#00AD68;" d="M121.933,464.496V415.79c0-8.168-6.257-14.851-13.905-14.851H36.766
		c-7.647,0-13.906,6.683-13.906,14.851v48.707H121.933z"/>
</g>
<path style="fill:#7CDFA8;" d="M456.01,464.496v-33.059c0-6.077-4.972-11.048-11.048-11.048h-62.016
	c-6.077,0-11.048,4.972-11.048,11.048v33.059H456.01z"/>
<path style="fill:#D1D3D3;" d="M368.422,218.833c-8.365,38.43-25.961,57.012-25.961,57.012c-1.314,1.387-3.913,2.188-5.777,1.781
	l-33.908-7.381c-1.864-0.408-3.896-2.216-4.513-4.022c0,0-8.28-24.217,0.085-62.646c5.343-24.544,32.785-54.079,35.686-67.403
	c2.9-13.324-3.077-22.57,1.597-44.045c2.718-12.484,15.041-20.401,27.526-17.683c12.485,2.718,20.401,15.041,17.684,27.526
	c-4.674,21.474-13.956,27.4-16.856,40.724C361.084,156.02,373.766,194.289,368.422,218.833z"/>
<path style="fill:#FF5959;" d="M334.68,132.011l30.449,6.629c1.789-5.182,4.544-9.451,7.389-14.64l-38.473-8.376
	C334.475,121.527,335.207,126.555,334.68,132.011z M331.256,143.133c-2.154,4.152-5.272,9.021-8.765,14.341l43.139,9.39
	c-0.965-6.288-1.777-12.015-2.01-16.686L331.256,143.133z"/>
<path style="fill:#D1D3D3;" d="M309.068,168.943c-10.38,37.936-28.931,55.564-28.931,55.564c-1.384,1.315-4.022,1.978-5.863,1.474
	l-33.472-9.158c-1.841-0.504-3.773-2.419-4.295-4.255c0,0-6.992-24.618,3.388-62.553c6.63-24.23,35.591-52.275,39.189-65.427
	c3.598-13.154-1.883-22.702,3.917-43.9c3.372-12.325,16.096-19.58,28.42-16.207c12.324,3.37,19.581,16.093,16.208,28.419
	c-5.799,21.197-15.381,26.624-18.979,39.776C305.05,105.831,315.697,144.713,309.068,168.943z"/>
<path style="fill:#FF5959;" d="M275.943,91.388c-2.37,4.034-5.741,8.732-9.509,13.86l42.585,11.653
	c-0.633-6.331-1.142-12.093-1.128-16.77L275.943,91.388z M280.178,64.066c0.119,5.917,0.584,10.975-0.23,16.398l30.058,8.223
	c2.06-5.082,5.037-9.198,8.151-14.23L280.178,64.066z"/>
<path style="fill:#D1D3D3;" d="M143.568,218.833c8.365,38.43,25.962,57.012,25.962,57.012c1.313,1.387,3.912,2.188,5.777,1.781
	l33.907-7.381c1.864-0.408,3.896-2.216,4.513-4.022c0,0,8.28-24.217-0.086-62.646c-5.343-24.544-32.785-54.079-35.686-67.403
	c-2.9-13.324,3.078-22.57-1.597-44.045c-2.717-12.484-15.041-20.401-27.526-17.683c-12.485,2.718-20.401,15.041-17.684,27.526
	c4.675,21.474,13.955,27.4,16.856,40.724C150.907,156.021,138.225,194.289,143.568,218.833z"/>
<path style="fill:#FF5959;" d="M177.311,132.011c-0.527-5.456,0.205-10.484,0.635-16.386l-38.473,8.376
	c2.845,5.189,5.6,9.457,7.389,14.64L177.311,132.011z M180.736,143.133l-32.365,7.045c-0.233,4.671-1.045,10.396-2.01,16.686
	l43.139-9.39C186.009,152.155,182.89,147.285,180.736,143.133z"/>
<circle style="fill:#333E48;" cx="255.992" cy="203.788" r="86.372"/>
<circle style="opacity:0.2;enable-background:new    ;" cx="255.992" cy="168.371" r="8.591"/>
<circle style="opacity:0.2;enable-background:new    ;" cx="273.182" cy="195.193" r="8.591"/>
<circle style="opacity:0.2;enable-background:new    ;" cx="290.361" cy="168.371" r="8.591"/>
<path style="fill:#1E252B;" d="M499.786,456.558h-3.551V415.79c0-11.475-8.179-20.971-18.769-22.537V176.765
	c0-16.724-13.606-30.328-30.33-30.328h-1.713v-42.454c0-10.213-8.31-18.523-18.523-18.523h-39.849
	c-3.724-9.214-11.784-16.497-22.206-18.767c-15.01-3.266-29.888,4.964-35.434,18.767H320.6c0.668-1.092,1.382-2.213,2.141-3.401
	c4.001-6.256,8.979-14.041,12.543-27.062c2.191-8.006,1.133-16.386-2.979-23.596c-4.112-7.209-10.786-12.385-18.79-14.575
	c-8.003-2.189-16.384-1.133-23.595,2.979c-7.21,4.112-12.387,10.785-14.577,18.791c-3.564,13.022-3.242,22.258-2.984,29.68
	c0.186,5.358,0.333,9.59-0.933,14.221c-0.227,0.828-0.663,1.832-1.251,2.966h-87.597c-5.544-13.803-20.423-22.035-35.433-18.767
	c-10.421,2.269-18.481,9.553-22.205,18.767H85.098c-10.213,0-18.523,8.31-18.523,18.523v42.454h-1.721
	c-16.723,0-30.328,13.606-30.328,30.328v216.354c-10.996,1.173-19.604,10.893-19.604,22.67v40.768h-2.708
	C5.479,456.558,0,462.039,0,468.774v15.302c0,6.734,5.479,12.214,12.214,12.214h487.573c6.735,0,12.214-5.48,12.214-12.214v-15.302
	C512,462.039,506.521,456.558,499.786,456.558z M474.391,408.877c3.235,0,5.967,3.166,5.967,6.913v40.768h-16.41v-25.121
	c0-10.47-8.518-18.987-18.987-18.987h-47.026c1.035-2.111,2.998-3.572,5.194-3.572h71.262V408.877z M448.071,431.437v25.121h-68.236
	v-25.121c0-1.686,1.424-3.11,3.11-3.11h62.016C446.648,428.326,448.071,429.751,448.071,431.437z M447.137,162.313
	c7.969,0,14.452,6.483,14.452,14.451v65.577h-91.666c2.33-6.458,4.492-13.718,6.256-21.819c3.391-15.578,0.424-34.7-2.194-51.572
	c-0.345-2.221-0.69-4.454-1.012-6.638h74.164V162.313z M388.598,103.662c0.169-0.776,0.297-1.553,0.405-2.327h37.898
	c1.434,0,2.646,1.212,2.646,2.646v42.454h-58.042c0.038-0.783,0.112-1.478,0.237-2.051c1.021-4.692,3.111-8.374,5.758-13.036
	C381.164,124.891,385.726,116.854,388.598,103.662z M341.791,137.864c1.535-7.049,1-13.131,0.485-19.013
	c-0.613-6.981-1.246-14.198,1.112-25.031c1.782-8.186,9.893-13.396,18.081-11.616c8.187,1.784,13.398,9.894,11.616,18.08
	c-2.358,10.832-5.935,17.135-9.393,23.227c-2.915,5.136-5.929,10.445-7.463,17.496c-1.545,7.097,0.05,17.371,2.068,30.378
	c2.286,14.734,5.133,33.071,2.37,45.758c-6.838,31.411-20.245,48.818-23.327,52.5l-11.539-2.512
	c15.218-16.752,24.504-38.987,24.504-63.349c0-18.91-5.599-36.535-15.22-51.312C338.465,146.879,340.867,142.105,341.791,137.864z
	 M326.181,101.336c-0.701,7.678-0.175,13.735,0.279,18.902c0.469,5.341,0.839,9.558-0.182,14.249
	c-0.26,1.193-0.949,2.798-1.816,4.509c-1.889-1.995-3.866-3.905-5.92-5.73c-0.369-4.729-0.833-9.352-1.289-13.845
	c-0.658-6.475-1.326-13.081-1.422-18.086C315.831,101.336,326.181,101.336,326.181,101.336z M286.741,86.682
	c1.903-6.959,1.691-13.062,1.486-18.962c-0.243-7.003-0.495-14.244,2.43-24.937c1.071-3.915,3.603-7.179,7.129-9.19
	c3.526-2.01,7.625-2.527,11.539-1.455c3.915,1.071,7.179,3.601,9.189,7.127c2.01,3.525,2.528,7.623,1.456,11.538
	c-2.926,10.694-6.829,16.796-10.605,22.698c-3.181,4.975-6.47,10.119-8.375,17.078c-1.917,7.007-0.867,17.351,0.464,30.445
	c0.005,0.055,0.011,0.11,0.017,0.164c-8.983-4.965-18.857-8.509-29.317-10.323C279.34,101.112,284.933,93.29,286.741,86.682z
	 M185.532,120.239c0.454-5.169,0.98-11.225,0.279-18.903h73.647c-0.465,0.632-0.93,1.264-1.396,1.895
	c-1.504,2.04-3.046,4.145-4.597,6.282c-25.925,0.686-49.274,11.888-65.934,29.485c-0.867-1.713-1.556-3.315-1.815-4.509
	C184.693,129.797,185.063,125.579,185.532,120.239z M255.996,125.354c43.246,0,78.43,35.184,78.43,78.431s-35.184,78.43-78.43,78.43
	s-78.43-35.183-78.43-78.43S212.749,125.354,255.996,125.354z M150.522,82.204c8.188-1.779,16.298,3.427,18.081,11.616
	c2.358,10.833,1.725,18.051,1.112,25.031c-0.517,5.882-1.05,11.964,0.485,19.014c0.924,4.242,3.327,9.016,6.708,14.607
	c-9.62,14.778-15.219,32.402-15.219,51.312c0,24.362,9.286,46.595,24.504,63.349l-11.548,2.514
	c-3.091-3.645-16.414-20.781-23.319-52.502c-2.762-12.687,0.084-31.025,2.37-45.758c2.019-13.008,3.613-23.281,2.068-30.378
	c-1.535-7.05-4.548-12.361-7.463-17.496c-3.458-6.094-7.035-12.395-9.393-23.226C137.125,92.097,142.336,83.987,150.522,82.204z
	 M82.452,103.982c0-1.434,1.212-2.646,2.646-2.646h37.889c0.109,0.774,0.237,1.551,0.405,2.327
	c2.872,13.192,7.433,21.229,11.098,27.687c2.646,4.663,4.737,8.345,5.758,13.036c0.125,0.573,0.199,1.267,0.237,2.051H82.452
	V103.982z M50.402,176.765c0-7.968,6.483-14.451,14.451-14.451h74.163c-0.322,2.184-0.667,4.417-1.012,6.638
	c-2.619,16.871-5.586,35.994-2.194,51.572c1.764,8.102,3.926,15.363,6.256,21.819H50.402V176.765z M30.798,415.791
	c0-3.747,2.733-6.913,5.968-6.913h71.262c3.235,0,5.967,3.166,5.967,6.913v40.768H30.798V415.791z M145.544,480.413H15.877v-7.978
	h129.667V480.413z M350.577,480.413H161.422v-7.978h189.156V480.413z M174.1,456.558V335.212h163.802v121.347H174.1V456.558z
	 M363.959,456.558h-10.179V327.274c0-4.385-3.554-7.939-7.939-7.939H166.161c-4.384,0-7.939,3.553-7.939,7.939v129.285h-28.351
	v-40.768c0-12.566-9.799-22.79-21.844-22.79H50.402V258.219h98.407c7.417,14.975,14.48,22.582,14.957,23.084
	c2.597,2.744,6.643,4.365,10.507,4.365c0.924,0,1.84-0.093,2.721-0.287l23.803-5.182c15.528,11.248,34.6,17.889,55.197,17.889
	c20.597,0,39.668-6.641,55.197-17.889l23.797,5.181c0.884,0.194,1.799,0.287,2.727,0.287c3.867,0,7.911-1.622,10.51-4.364
	c0.476-0.504,7.541-8.109,14.956-23.084h98.407v134.781h-58.46c-10.978,0-20.065,8.502-21.593,19.52
	c-9.812,0.726-17.577,8.922-17.577,18.916v25.122H363.959z M496.123,480.413H366.454v-7.978h129.667v7.978H496.123z"/>
<g>
</g>
<g>
</g>
<g>
</g>
<g>
</g>
<g>
</g>
<g>
</g>
<g>
</g>
<g>
</g>
<g>
</g>
<g>
</g>
<g>
</g>
<g>
</g>
<g>
</g>
<g>
</g>
<g>
</g>
</svg>
